<svg width="70" height="70" viewBox="0 0 70 70" fill="none" xmlns="http://www.w3.org/2000/svg">
<circle cx="35" cy="35" r="35" fill="#FAF9F6"/>
<path d="M25.7396 48.9571L17.4929 43.28C16.4383 42.554 15 43.3068 15 44.5847L15 53.4139C15 54.2894 15.7117 54.9992 16.5897 54.9993L35.521 54.9999C36.5463 55 37.1164 53.8174 36.4762 53.0189L33.8313 49.7197C33.4318 49.2215 33.3707 48.533 33.6763 47.9725L33.8146 47.7187C33.8521 47.65 33.8959 47.5848 33.9454 47.5241C34.3371 47.0438 35.0191 46.9153 35.5595 47.2201L48.5144 54.5261C49.0653 54.8367 49.6874 55 50.3203 55H53.4103C54.2882 55 55 54.2902 55 53.4146V46.734C55 45.881 54.3233 45.181 53.4686 45.1497L37.5008 44.5651C37.0394 44.5482 36.6081 44.3321 36.3192 43.9729L35.7115 43.2177C35.286 42.6888 35.2449 41.9486 35.6092 41.376L42.0048 31.3259C42.2964 30.8677 42.8029 30.5901 43.3471 30.5901H44.7544C45.3366 30.5901 45.8722 30.9074 46.1506 31.4172L50.6236 39.6087C50.902 40.1186 51.4376 40.4359 52.0197 40.4359H53.4103C54.2882 40.4359 55 39.7261 55 38.8505V16.5854C55 15.7098 54.2882 15 53.4103 15H39.9857C39.2853 15 38.6674 15.4571 38.4643 16.1256L31.8199 37.9929C31.6045 38.7018 30.9256 39.1675 30.1848 39.1145L29.3011 39.0513L28.6493 38.9695C27.8543 38.8697 27.2581 38.1956 27.2581 37.3965V16.5854C27.2581 15.7098 26.5463 15 25.6683 15H16.5897C15.7118 15 15 15.7098 15 16.5854V25.3105C15 25.9472 15.1666 26.5728 15.4833 27.1256L27.2167 47.6044C27.4597 48.0284 27.3691 48.5644 27.0003 48.8856C26.6459 49.1942 26.1268 49.2237 25.7396 48.9571Z" fill="#2E2E2E"/>
</svg>
