<svg width="50" height="50" viewBox="0 0 50 50" fill="none" xmlns="http://www.w3.org/2000/svg">
<path d="M0 1.66667C0 0.746194 0.746192 0 1.66667 0H48.3333C49.2538 0 50 0.746192 50 1.66667V48.3333C50 49.2538 49.2538 50 48.3333 50H1.66667C0.746194 50 0 49.2538 0 48.3333V1.66667Z" fill="#FAF9F6"/>
<path d="M15.2915 39.6729L6.64576 33.7046C5.54018 32.9414 4.03226 33.7328 4.03226 35.0762L4.03226 44.3582C4.03226 45.2787 4.77842 46.0248 5.69887 46.0249L25.5463 46.0255C26.6211 46.0256 27.2189 44.7824 26.5477 43.9429L23.7747 40.4746C23.3559 39.9508 23.2919 39.227 23.6122 38.6378L23.7573 38.3709C23.7966 38.2987 23.8424 38.2302 23.8943 38.1664C24.305 37.6614 25.02 37.5264 25.5866 37.8467L39.1684 45.5274C39.7459 45.854 40.3981 46.0256 41.0616 46.0256H44.3011C45.2215 46.0256 45.9677 45.2795 45.9677 44.359V37.3357C45.9677 36.439 45.2583 35.7031 44.3622 35.6702L27.6218 35.0556C27.1381 35.0378 26.6859 34.8106 26.383 34.4331L25.7459 33.6391C25.2998 33.0831 25.2567 32.3049 25.6387 31.703L32.3438 21.1375C32.6495 20.6558 33.1804 20.3639 33.751 20.3639H35.2264C35.8368 20.3639 36.3983 20.6975 36.6902 21.2335L41.3796 29.8451C41.6714 30.3811 42.233 30.7147 42.8433 30.7147H44.3011C45.2215 30.7147 45.9677 29.9685 45.9677 29.048V5.64103C45.9677 4.72055 45.2215 3.97436 44.3011 3.97436H30.227C29.4927 3.97436 28.8449 4.45495 28.6319 5.15771L21.6661 28.1464C21.4402 28.8917 20.7285 29.3812 19.9518 29.3255L19.0253 29.259L18.342 29.173C17.5086 29.0682 16.8835 28.3594 16.8835 27.5194V5.64103C16.8835 4.72055 16.1373 3.97436 15.2168 3.97436H5.69893C4.77845 3.97436 4.03226 4.72055 4.03226 5.64102V14.8137C4.03226 15.4829 4.20691 16.1406 4.53894 16.7218L16.8401 38.2507C17.0948 38.6965 16.9999 39.26 16.6132 39.5977C16.2417 39.9221 15.6974 39.9531 15.2915 39.6729Z" fill="#2E2E2E"/>
</svg>
