<svg width="328" height="328" viewBox="0 0 328 328" fill="none" xmlns="http://www.w3.org/2000/svg">
<path d="M87.8224 278.448L20.3853 231.896C11.7618 225.943 3.16979e-06 232.116 5.72205e-06 242.594L2.28882e-05 314.994C2.46369e-05 322.173 5.82003 327.994 12.9996 327.994L167.809 327.999C176.193 328 180.855 318.303 175.62 311.755L153.991 284.702C150.725 280.616 150.225 274.97 152.724 270.375L153.855 268.293C154.162 267.73 154.519 267.196 154.924 266.698C158.127 262.759 163.704 261.706 168.124 264.205L274.062 324.114C278.566 326.661 283.654 328 288.829 328H314.097C321.276 328 327.097 322.18 327.097 315V260.219C327.097 253.224 321.563 247.484 314.574 247.227L183.998 242.434C180.225 242.295 176.699 240.523 174.336 237.578L169.367 231.385C165.887 227.048 165.551 220.978 168.53 216.283L220.83 133.873C223.214 130.115 227.356 127.838 231.806 127.838H243.315C248.075 127.838 252.455 130.441 254.732 134.621L291.309 201.791C293.586 205.972 297.965 208.574 302.726 208.574H314.097C321.276 208.574 327.097 202.754 327.097 195.574V13C327.097 5.82028 321.276 0 314.097 0H204.319C198.591 0 193.538 3.7486 191.877 9.2301L137.544 188.542C135.782 194.355 130.23 198.173 124.172 197.739L116.946 197.221L111.616 196.55C105.115 195.732 100.239 190.204 100.239 183.651V13C100.239 5.82028 94.419 0 87.2393 0H13C5.8203 0 0 5.82028 0 13V84.5465C0 89.7669 1.36225 94.897 3.95214 99.4297L99.9014 267.356C101.888 270.833 101.147 275.228 98.1314 277.862C95.2337 280.392 90.9883 280.634 87.8224 278.448Z" fill="#FAF9F6"/>
</svg>
