<svg width="100" height="100" viewBox="0 0 100 100" fill="none" xmlns="http://www.w3.org/2000/svg">
<path d="M41.25 47.0625C46.2187 44.6875 48.8125 41.0938 48.8125 35.5C48.8125 24.4688 40.5938 21.7812 31.1094 21.7812H5V77.1562H31.8438C41.9063 77.1562 51.3594 72.3281 51.3594 61.0781C51.3594 54.125 48.0625 48.9844 41.25 47.0625ZM17.1719 31.2344H28.5938C32.9844 31.2344 36.9375 32.4688 36.9375 37.5625C36.9375 42.2656 33.8594 44.1563 29.5156 44.1563H17.1719V31.2344ZM30.1875 67.75H17.1719V52.5H30.4375C35.7969 52.5 39.1875 54.7344 39.1875 60.4063C39.1875 66 35.1406 67.75 30.1875 67.75ZM86.2031 30.1406H63.75V24.6875H86.2031V30.1406ZM95 57.6875C95 45.8281 88.0625 35.9375 75.4844 35.9375C63.2656 35.9375 54.9687 45.125 54.9687 57.1562C54.9687 69.6406 62.8281 78.2031 75.4844 78.2031C85.0625 78.2031 91.2656 73.8906 94.25 64.7188H84.5312C83.4844 68.1406 79.1719 69.9531 75.8281 69.9531C69.375 69.9531 65.9844 66.1719 65.9844 59.75H94.9063C94.9531 59.0938 95 58.3906 95 57.6875ZM66 52.8125C66.3594 47.5469 69.8594 44.25 75.1406 44.25C80.6719 44.25 83.4531 47.5 83.9219 52.8125H66Z" fill="black"/>
</svg>
