<svg width="100" height="100" viewBox="0 0 100 100" fill="none" xmlns="http://www.w3.org/2000/svg">
<path d="M81.9531 20.9063C81.9219 20.8594 81.8906 20.8125 81.8281 20.7969C75.875 18.0625 69.5781 16.1094 63.125 15C63.0625 14.9844 63 15 62.9531 15.0156C62.9063 15.0312 62.8594 15.0781 62.8281 15.1406C61.9688 16.6875 61.1875 18.2969 60.5 19.9219C53.5313 18.8594 46.4531 18.8594 39.5 19.9219C38.7969 18.2813 38.0156 16.6875 37.1406 15.1406C37.1094 15.0938 37.0625 15.0469 37.0156 15.0156C36.9688 14.9844 36.9063 14.9844 36.8438 14.9844C30.3906 16.0938 24.0938 18.0469 18.1406 20.7813C18.0938 20.7969 18.0469 20.8437 18.0156 20.8906C6.10938 38.6719 2.84376 56.0313 4.4375 73.1563C4.4375 73.2031 4.45313 73.2344 4.46876 73.2813C4.48438 73.3281 4.51563 73.3438 4.54688 73.375C11.4844 78.5156 19.2344 82.4375 27.4844 84.9688C27.5469 84.9844 27.6094 84.9844 27.6563 84.9688C27.7031 84.9531 27.7656 84.9063 27.7969 84.8594C29.5625 82.4531 31.1406 79.8906 32.4844 77.2344C32.5 77.2031 32.5156 77.1563 32.5156 77.1094C32.5156 77.0625 32.5156 77.0313 32.5 76.9844C32.4844 76.9375 32.4688 76.9063 32.4375 76.8906C32.4063 76.875 32.375 76.8438 32.3281 76.8281C29.8594 75.875 27.4531 74.7344 25.1563 73.4063C25.1094 73.375 25.0781 73.3438 25.0469 73.3125C25.0156 73.2813 25 73.2188 25 73.1719C25 73.125 25 73.0781 25.0313 73.0313C25.0625 72.9844 25.0781 72.9531 25.125 72.9219C25.6094 72.5625 26.0938 72.1875 26.5469 71.8125C26.5938 71.7813 26.6406 71.75 26.6875 71.75C26.7344 71.75 26.7969 71.75 26.8438 71.7656C41.875 78.625 58.1563 78.625 73.0156 71.7656C73.0625 71.75 73.125 71.7344 73.1719 71.7344C73.2188 71.7344 73.2813 71.7656 73.3125 71.7969C73.7656 72.1719 74.25 72.5625 74.7344 72.9219C74.7656 72.9531 74.7969 72.9844 74.8281 73.0313C74.8594 73.0781 74.8594 73.125 74.8594 73.1719C74.8594 73.2188 74.8438 73.2656 74.8125 73.3125C74.7813 73.3594 74.75 73.3906 74.7188 73.4063C72.4219 74.75 70.0313 75.8906 67.5469 76.8125C67.5156 76.8281 67.4688 76.8438 67.4375 76.875C67.4063 76.9063 67.3906 76.9375 67.375 76.9844C67.3594 77.0313 67.3594 77.0625 67.3594 77.1094C67.3594 77.1563 67.375 77.1875 67.3906 77.2344C68.7656 79.8906 70.3281 82.4375 72.0781 84.8594C72.1094 84.9063 72.1719 84.9531 72.2188 84.9688C72.2656 84.9844 72.3438 84.9844 72.3906 84.9688C80.6563 82.4375 88.4219 78.5156 95.375 73.375C95.4063 73.3438 95.4375 73.3125 95.4531 73.2813C95.4688 73.25 95.4844 73.2031 95.4844 73.1563C97.4063 53.3438 92.2813 36.1406 81.9063 20.8906L81.9531 20.9063ZM34.7656 62.7344C30.2344 62.7344 26.5156 58.5781 26.5156 53.4844C26.5156 48.3906 30.1719 44.2344 34.7656 44.2344C39.4063 44.2344 43.0938 48.4219 43.0156 53.4844C43.0156 58.5938 39.3594 62.7344 34.7656 62.7344ZM65.2969 62.7344C60.7656 62.7344 57.0469 58.5781 57.0469 53.4844C57.0469 48.3906 60.7031 44.2344 65.2969 44.2344C69.9375 44.2344 73.625 48.4219 73.5469 53.4844C73.5469 58.5938 69.9219 62.7344 65.2969 62.7344Z" fill="black"/>
</svg>
