<svg width="100" height="100" viewBox="0 0 100 100" fill="none" xmlns="http://www.w3.org/2000/svg">
<path d="M37.1719 72.0937C37.1719 72.4062 36.8125 72.6562 36.3594 72.6562C35.8437 72.7031 35.4844 72.4531 35.4844 72.0937C35.4844 71.7812 35.8438 71.5312 36.2969 71.5312C36.7656 71.4844 37.1719 71.7344 37.1719 72.0937ZM32.3125 71.3906C32.2031 71.7031 32.5156 72.0625 32.9844 72.1562C33.3906 72.3125 33.8594 72.1562 33.9531 71.8437C34.0469 71.5312 33.75 71.1719 33.2812 71.0313C32.875 70.9219 32.4219 71.0781 32.3125 71.3906ZM39.2188 71.125C38.7656 71.2344 38.4531 71.5313 38.5 71.8906C38.5469 72.2031 38.9531 72.4063 39.4219 72.2969C39.875 72.1875 40.1875 71.8906 40.1406 71.5781C40.0937 71.2813 39.6719 71.0781 39.2188 71.125ZM49.5 11.25C27.8281 11.25 11.25 27.7031 11.25 49.375C11.25 66.7031 22.1563 81.5313 37.7344 86.75C39.7344 87.1094 40.4375 85.875 40.4375 84.8594C40.4375 83.8906 40.3906 78.5469 40.3906 75.2656C40.3906 75.2656 29.4531 77.6094 27.1563 70.6094C27.1563 70.6094 25.375 66.0625 22.8125 64.8906C22.8125 64.8906 19.2344 62.4375 23.0625 62.4844C23.0625 62.4844 26.9531 62.7969 29.0937 66.5156C32.5156 72.5469 38.25 70.8125 40.4844 69.7813C40.8438 67.2813 41.8594 65.5469 42.9844 64.5156C34.25 63.5469 25.4375 62.2812 25.4375 47.25C25.4375 42.9531 26.625 40.7969 29.125 38.0469C28.7187 37.0312 27.3906 32.8438 29.5312 27.4375C32.7969 26.4219 40.3125 31.6563 40.3125 31.6563C43.4375 30.7813 46.7969 30.3281 50.125 30.3281C53.4531 30.3281 56.8125 30.7813 59.9375 31.6563C59.9375 31.6563 67.4531 26.4063 70.7188 27.4375C72.8594 32.8594 71.5313 37.0312 71.125 38.0469C73.625 40.8125 75.1562 42.9687 75.1562 47.25C75.1562 62.3281 65.9531 63.5312 57.2188 64.5156C58.6563 65.75 59.875 68.0937 59.875 71.7656C59.875 77.0312 59.8281 83.5469 59.8281 84.8281C59.8281 85.8438 60.5469 87.0781 62.5313 86.7188C78.1563 81.5312 88.75 66.7031 88.75 49.375C88.75 27.7031 71.1719 11.25 49.5 11.25ZM26.4375 65.1406C26.2344 65.2969 26.2812 65.6563 26.5469 65.9531C26.7969 66.2031 27.1563 66.3125 27.3594 66.1094C27.5625 65.9531 27.5156 65.5937 27.25 65.2969C27 65.0469 26.6406 64.9375 26.4375 65.1406ZM24.75 63.875C24.6406 64.0781 24.7969 64.3281 25.1094 64.4844C25.3594 64.6406 25.6719 64.5937 25.7812 64.375C25.8906 64.1719 25.7344 63.9219 25.4219 63.7656C25.1094 63.6719 24.8594 63.7187 24.75 63.875ZM29.8125 69.4375C29.5625 69.6406 29.6563 70.1094 30.0156 70.4063C30.375 70.7656 30.8281 70.8125 31.0313 70.5625C31.2344 70.3594 31.1406 69.8906 30.8281 69.5937C30.4844 69.2344 30.0156 69.1875 29.8125 69.4375ZM28.0312 67.1406C27.7812 67.2969 27.7812 67.7031 28.0312 68.0625C28.2812 68.4219 28.7031 68.5781 28.9062 68.4219C29.1563 68.2187 29.1563 67.8125 28.9062 67.4531C28.6875 67.0938 28.2812 66.9375 28.0312 67.1406Z" fill="black"/>
</svg>
