<svg width="100" height="100" viewBox="0 0 100 100" fill="none" xmlns="http://www.w3.org/2000/svg">
<path d="M50.0469 32.0312C40.125 32 32.0625 40.0312 32.0312 49.9531C32 59.875 40.0313 67.9375 49.9531 67.9687C59.875 68 67.9375 59.9687 67.9688 50.0469C68 40.125 59.9687 32.0625 50.0469 32.0312ZM49.9531 38.3437C56.3906 38.3125 61.625 43.5156 61.6563 49.9531C61.6875 56.3906 56.4844 61.625 50.0469 61.6562C43.6094 61.6875 38.375 56.4844 38.3437 50.0469C38.3125 43.6094 43.5156 38.375 49.9531 38.3437ZM64.5469 31.2969C64.5469 28.9844 66.4219 27.1094 68.7344 27.1094C71.0469 27.1094 72.9219 28.9844 72.9219 31.2969C72.9219 33.6094 71.0469 35.4844 68.7344 35.4844C66.4219 35.4844 64.5469 33.6094 64.5469 31.2969ZM84.8125 35.5469C84.5469 29.9375 83.2656 24.9688 79.1563 20.875C75.0625 16.7813 70.0938 15.5 64.4844 15.2187C58.7031 14.8906 41.375 14.8906 35.5938 15.2187C30 15.4844 25.0312 16.7656 20.9219 20.8594C16.8125 24.9531 15.5469 29.9219 15.2656 35.5312C14.9375 41.3125 14.9375 58.6406 15.2656 64.4219C15.5312 70.0312 16.8125 75 20.9219 79.0937C25.0312 83.1875 29.9844 84.4687 35.5938 84.75C41.375 85.0781 58.7031 85.0781 64.4844 84.75C70.0938 84.4844 75.0625 83.2031 79.1563 79.0937C83.25 75 84.5312 70.0312 84.8125 64.4219C85.1406 58.6406 85.1406 41.3281 84.8125 35.5469ZM77.3438 70.625C76.125 73.6875 73.7656 76.0469 70.6875 77.2812C66.0781 79.1094 55.1406 78.6875 50.0469 78.6875C44.9531 78.6875 34 79.0937 29.4062 77.2812C26.3437 76.0625 23.9844 73.7031 22.75 70.625C20.9219 66.0156 21.3438 55.0781 21.3438 49.9844C21.3438 44.8906 20.9375 33.9375 22.75 29.3437C23.9688 26.2812 26.3281 23.9219 29.4062 22.6875C34.0156 20.8594 44.9531 21.2812 50.0469 21.2812C55.1406 21.2812 66.0937 20.875 70.6875 22.6875C73.75 23.9062 76.1094 26.2656 77.3438 29.3437C79.1719 33.9531 78.75 44.8906 78.75 49.9844C78.75 55.0781 79.1719 66.0312 77.3438 70.625Z" fill="black"/>
</svg>
