<svg width="100" height="100" viewBox="0 0 100 100" fill="none" xmlns="http://www.w3.org/2000/svg">
<path d="M30.6719 80H16.1563V33.2656H30.6719V80ZM23.4063 26.8906C18.7656 26.8906 15 23.0469 15 18.4063C15 16.1719 15.8906 14.0469 17.4688 12.4688C19.0469 10.8906 21.1875 10 23.4063 10C25.625 10 27.7656 10.8906 29.3438 12.4688C30.9219 14.0469 31.8125 16.1875 31.8125 18.4063C31.8125 23.0469 28.0469 26.8906 23.4063 26.8906ZM84.9844 80H70.5V57.25C70.5 51.8281 70.3906 44.875 62.9531 44.875C55.4062 44.875 54.25 50.7656 54.25 56.8594V80H39.75V33.2656H53.6719V39.6406H53.875C55.8125 35.9687 60.5469 32.0937 67.6094 32.0937C82.2969 32.0937 85 41.7656 85 54.3281V80H84.9844Z" fill="black"/>
</svg>
