<svg width="100" height="100" viewBox="0 0 100 100" fill="none" xmlns="http://www.w3.org/2000/svg">
<path d="M19.5938 20C14.2969 20 10 24.2969 10 29.5937C10 29.7344 10 29.8594 10.0156 30H10V70C10 75.5156 14.4844 80 20 80H80C85.5156 80 90 75.5156 90 70V30H89.9844C89.9844 29.8594 90 29.7344 90 29.5937C90 24.2969 85.7031 20 80.4062 20H19.5938ZM82.5 40.0469V70C82.5 71.375 81.375 72.5 80 72.5H20C18.625 72.5 17.5 71.375 17.5 70V40.0469L41.6875 58.3906C46.5937 62.125 53.3906 62.125 58.3125 58.3906L82.5 40.0469ZM17.5 29.5937C17.5 28.4375 18.4375 27.5 19.5938 27.5H80.4062C81.5625 27.5 82.5 28.4375 82.5 29.5937C82.5 30.25 82.1875 30.875 81.6719 31.2656L53.7813 52.4219C51.5469 54.1094 48.4531 54.1094 46.2187 52.4219L18.3281 31.2656C17.8125 30.875 17.5 30.25 17.5 29.5937Z" fill="black"/>
</svg>
