<svg width="100" height="100" viewBox="0 0 100 100" fill="none" xmlns="http://www.w3.org/2000/svg">
<path d="M72.7187 15C79.5 15 85 20.5 85 27.2813V40.375C84.7031 40.3594 84.4062 40.3438 84.1094 40.3438H84.0469C82.4844 40.3438 80.5625 40.7188 79.1875 41.4063C77.625 42.125 76.2656 43.2031 75.125 44.625C73.2812 46.9063 72.1719 49.9844 71.9063 53.4375C71.8906 53.5469 71.8906 53.6406 71.875 53.75C71.8594 53.8594 71.8594 53.9375 71.8594 54.0469C71.8437 54.2344 71.8437 54.4219 71.8437 54.6094C71.8437 54.9063 71.8281 55.2031 71.8437 55.5156C72.0312 63.3438 76.25 69.6094 83.7656 69.6094C84.1875 69.6094 84.5938 69.5938 85 69.5469V72.7344C85 79.5156 79.5 85.0156 72.7187 85.0156L27.2813 85C20.5 85 15 79.5 15 72.7188V27.2813C15 20.5 20.5 15 27.2813 15H72.7187ZM27.8594 31.7031L27.9063 31.7188C29.9688 32.1875 31 32.875 31 35.375V64.625C31 67.125 29.9531 67.8125 27.8906 68.2813L27.8437 68.2969V68.7344H36.0938V68.2969L36.0469 68.2813C33.9844 67.8125 32.9375 67.125 32.9375 64.625V37.0781L46.3906 68.7188H47.1562L61 36.1875V65.3438C60.8281 67.3125 59.7813 67.9219 57.9219 68.3438L57.875 68.3594V68.7813H72.2344V68.3594L72.1875 68.3438C70.3281 67.9219 69.2656 67.3125 69.0781 65.3438L69.0625 35.375H69.0781C69.0781 32.875 70.125 32.1875 72.1875 31.7188L72.2344 31.7031V31.2813H60.9531L50.4844 55.875L40.0156 31.2813H27.8594V31.7031ZM85 63.1719C81.0781 62.0156 78.2812 57.6875 78.5625 52.5781H84.9844V63.1719H85ZM84 41.9844C84.3594 41.9844 84.6875 42.0313 85 42.125V51.0938H78.7187C78.9531 45.8438 80.8437 42.0469 84 41.9844Z" fill="black"/>
</svg>
