<svg width="100" height="100" viewBox="0 0 100 100" fill="none" xmlns="http://www.w3.org/2000/svg">
<path d="M88.75 50C88.75 71.4062 71.4062 88.75 50 88.75C46 88.75 42.1563 88.1406 38.5313 87.0156C40.1094 84.4375 42.4687 80.2187 43.3437 76.8594C43.8125 75.0469 45.75 67.6406 45.75 67.6406C47.0156 70.0469 50.7031 72.0937 54.625 72.0937C66.3125 72.0937 74.7344 61.3438 74.7344 47.9844C74.7344 35.1875 64.2812 25.6094 50.8437 25.6094C34.125 25.6094 25.2344 36.8281 25.2344 49.0625C25.2344 54.75 28.2656 61.8281 33.0938 64.0781C33.8281 64.4219 34.2188 64.2656 34.3906 63.5625C34.5156 63.0312 35.1719 60.3906 35.4688 59.1719C35.5625 58.7813 35.5156 58.4375 35.2031 58.0625C33.625 56.1094 32.3438 52.5469 32.3438 49.2188C32.3438 40.6719 38.8125 32.4062 49.8438 32.4062C59.3594 32.4062 66.0313 38.8906 66.0313 48.1719C66.0313 58.6562 60.7344 65.9219 53.8438 65.9219C50.0469 65.9219 47.1875 62.7813 48.1094 58.9219C49.2031 54.3125 51.3125 49.3437 51.3125 46.0156C51.3125 43.0469 49.7188 40.5625 46.4062 40.5625C42.5156 40.5625 39.3906 44.5781 39.3906 49.9687C39.3906 53.4062 40.5469 55.7188 40.5469 55.7188C40.5469 55.7188 36.7188 71.9375 36.0156 74.9687C35.2344 78.3125 35.5469 83.0312 35.875 86.0938C21.4688 80.4531 11.25 66.4219 11.25 50C11.25 28.5938 28.5938 11.25 50 11.25C71.4062 11.25 88.75 28.5938 88.75 50Z" fill="black"/>
</svg>
